<svg xmlns="http://www.w3.org/2000/svg" width="67" height="69">
    <g data-name="Group 6323">
        <path d="M15 0h37a15 15 0 0 1 15 15v39a15 15 0 0 1-15 15H15A15 15 0 0 1 0 54V15A15 15 0 0 1 15 0z" fill="#fff"
              fill-rule="evenodd" data-name="Rectangle 1434"/>
        <g data-name="Icon ionic-ios-menu">
            <path d="M50.085 25.206H16.958c-.828 0-1.506-.821-1.506-1.825 0-1.003.678-1.824 1.506-1.824h33.127c.828 0 1.505.82 1.505 1.824s-.677 1.825-1.505 1.825Z"
                  fill="#51aabc" fill-rule="evenodd" data-name="Path 10145"/>
            <path d="M50.085 36.154H16.958c-.828 0-1.506-.821-1.506-1.825s.678-1.825 1.506-1.825h33.127c.828 0 1.505.821 1.505 1.825s-.677 1.825-1.505 1.825Z"
                  fill="#51aabc" fill-rule="evenodd" data-name="Path 10146"/>
            <path d="M50.085 47.101H16.958c-.828 0-1.506-.82-1.506-1.824s.678-1.825 1.506-1.825h33.127c.828 0 1.505.821 1.505 1.825 0 1.003-.677 1.824-1.505 1.824Z"
                  fill="#51aabc" fill-rule="evenodd" data-name="Path 10147"/>
        </g>
    </g>
</svg>