<svg xmlns="http://www.w3.org/2000/svg" width="31.892" height="31.897" viewBox="0 0 31.892 31.897">
  <path id="home_3_" data-name="home (3)" d="M25.041,31.9H19.95a.935.935,0,0,1-.934-.934V23.456a1.57,1.57,0,0,0-1.568-1.569h-3a1.57,1.57,0,0,0-1.568,1.569v7.507a.936.936,0,0,1-.935.934H6.853a3.44,3.44,0,0,1-3.436-3.436V18.886H2.9c-.027,0-.057,0-.09,0a2.936,2.936,0,0,1-1.955-5l.013-.014L13.871.86a2.935,2.935,0,0,1,4.153,0L31.035,13.872a2.937,2.937,0,0,1-2.076,5.014h-.481v9.575A3.441,3.441,0,0,1,25.041,31.9Z" transform="translate(0)" fill="#fff"/>
</svg>
