<svg xmlns="http://www.w3.org/2000/svg" width="616.468" height="1335.582" viewBox="1142.358 -82.631 616.468 1335.582"><g data-name="BOY PROFIL OK"><path d="M1406.132 491.016c-22.673 5.668-62.329 7.295-41.826 78.204l34.148 128.804c4.398 16.647 20.243 26.126 37.197 20.813 64.313-20.153 36.656-59.794 28.542-74.192 0 0-21.334-19.561-33.67-72.576-6.509-27.968 85.025-33.848 85.898-50.917 1.683-32.933-36.438-48.594-110.29-30.136Z" fill-rule="evenodd" data-name="COU"/><path d="m1438.093 1053.93-72.094.927c-32.652-1.95-45.434 34.305-46.279 67.879-1.116 44.365 4.97 129.433 48.525 129.024l56.414 1.186c65.8.748 66.552-82.438 66.741-115.936.34-59.777-8.8-73.686-53.307-83.08Z" fill-rule="evenodd" data-name="BASSIN"/><g data-name="BUSTE"><path d="M1447.166 617.304s-16.233-20.7-73.382 1.9c-9.675 10.936-17.322 20.628-23.84 28.074-9.18 10.49-13.098 19.206-14.124 52.48-.921 29.885-13.394 159.735-16.394 217.712-4.272 82.557-8.993 175.572-14.487 198.443-10.5 43.709 1.06 36.013 40.364 44.352 53.938 6.1 109.594 9.758 150.083 2.842 8.513-1.454 9.19-62.542 14.192-246.74 2.189-80.599 3.355-180.176-15.022-230.888-17.306-47.755-47.39-68.175-47.39-68.175Z" fill-rule="evenodd" data-name="BUSTE"/><path d="M1420.223 651.488c19.544-8.7 57.025-14.258 56.432-18.93 0 0-21.709-53.35-29.69-49.834-6.383 2.814-60.504 19.378-84.591 28.496a55.53 55.53 0 0 0-.38.036s-9.439.708-13.093 25.383c-1.534 10.36-4.181 15.737-6.084 21.61 0 0 6.696-3.467 17.506-5.807a146.25 146.25 0 0 0 3.365 12.656c1.082 3.447 3.906 4.847 7.913 4.847 11.083 0 31.22-10.708 48.622-18.457Z" fill-rule="evenodd" data-name="COL"/></g><g data-name="NEUTRE G1 copie"><path d="M1312.402 572.425c57.798-2.46 121.306-20.896 151.325-34.04 124.173-6.527 235.131-107.382 261.47-247.998 30.386-162.233-62.772-299.116-208.648-326.34-57.165-10.668-114.51-6.076-164.6 15.123-15.876 5.775-111.596 42.98-136.845 109.06-28.384 74.281-2.107 172.415-13.715 205.85-11.713 39.658-41.26 29.559-53.779 41.648-17.627 17.024 13.007 43.97 34.46 46.108-13.666 17.88-25.047 42.412-30.36 74.956-3.02 18.485 70.924 7.8 70.924 7.8s-15.475 16.069-43.943 13.503c1.695 18.051 49.35 94.441 128.443 94.443 1.741 0 3.496-.037 5.268-.113Z" fill-rule="evenodd" data-name="NEUTRE G"/></g><g data-name="HAIR_FRONT copie"><path d="M1296.682-2.532s29.98-77.272 50.037-69.37c18.318 7.217 7.96 44.351 7.96 44.351s16.015-18.21 27.293-28.43c35.387-32.068 73.055-35.313 60.272-9.098-7.628 15.644-15.358 27.184-15.358 27.184.178-.025 19.981-11.185 39.24-18.086 25.69-9.205 78.001-14.781 90.977-3.412 18.23 18.51-21.512 29.906-21.512 29.906s124.855-10.969 119.312 25.817c1.268 14.482-32.682 18.604-32.682 18.604s21.598-5.252 56.563 12.101c24.442 12.13 63.233 51.583 6.823 39.803 38.546 15.322 78.166 63.838 53.449 71.644-18.624 4.64-22.744-1.138-22.744-1.138s19.962 15.955 35.254 54.587c14.541 36.737 5.02 85.98-9.098 72.78-14.215-13.288-12.329-9.08-12.329-9.08s12.965 33.278-.18 85.274c-5.572 22.039-20.47-1.137-20.47-1.137s6.373 50.795-20.47 80.741c-10.833 12.086-13.647-4.549-13.647-4.549s.515 18.784-13.646 37.529c-30.917 40.925-56.805 42.404-46.626 22.743 2.782-5.372-296.55-414.873-318.418-478.764Z" fill-rule="evenodd" data-name="Forme 13"/><path d="M1342.17-15.042s-85.932 16.543-113.721 53.449c-24.657 32.746-29.36 114.033-26.156 162.62 3.205 48.588 76.435 19.53 81.879 13.647 5.444-5.882 50.712-10.326 55.723-102.348.658-12.08 3.075-124.078 2.275-127.368Z" fill-rule="evenodd" data-name="Forme 14"/></g></g></svg>