<svg xmlns="http://www.w3.org/2000/svg" width="208.251" height="53.505" viewBox="85.17 7.747 208.251 53.505"><g data-name="LOGO HOOPOW"><path d="M103.949 21.93c.221-.415.594-.705 1.12-.87.524-.167 1.188-.25 1.99-.25.8 0 1.436.07 1.906.208.47.138.83.304 1.078.497.249.194.442.47.58.83.138.47.208 1.188.208 2.155v23.008c0 .636-.021 1.112-.063 1.43-.041.318-.172.684-.394 1.099-.386.746-1.464 1.119-3.233 1.119-1.935 0-3.068-.511-3.4-1.534-.165-.47-.248-1.188-.248-2.156v-8.415H92.507v8.457c0 .636-.02 1.112-.062 1.43-.041.318-.173.684-.394 1.099-.387.746-1.465 1.119-3.233 1.119-1.935 0-3.068-.511-3.4-1.534-.165-.47-.248-1.188-.248-2.156V24.46c0-.636.02-1.113.062-1.43.041-.318.173-.685.394-1.1.387-.745 1.464-1.118 3.233-1.118 1.935 0 3.082.51 3.44 1.533.14.47.208 1.189.208 2.156v8.457h10.986v-8.498c0-.636.02-1.113.062-1.43.042-.318.173-.685.394-1.1Zm23.215-1.493c4.09 0 7.642 1.48 10.654 4.436 3.012 2.957 4.519 6.626 4.519 11.007 0 4.38-1.438 8.111-4.312 11.193-2.874 3.081-6.412 4.622-10.612 4.622-4.201 0-7.773-1.52-10.717-4.56-2.943-3.04-4.415-6.66-4.415-10.862 0-2.293.415-4.442 1.244-6.446.83-2.004 1.935-3.682 3.317-5.037a15.525 15.525 0 0 1 4.767-3.192 13.907 13.907 0 0 1 5.555-1.16Zm-7.545 15.63c0 2.459.795 4.456 2.384 5.99 1.589 1.533 3.365 2.3 5.327 2.3 1.962 0 3.73-.746 5.306-2.238 1.575-1.493 2.363-3.496 2.363-6.011s-.795-4.533-2.384-6.053c-1.589-1.52-3.364-2.28-5.327-2.28-1.962 0-3.73.767-5.306 2.3-1.575 1.535-2.363 3.531-2.363 5.991Zm38.43-15.63c4.09 0 7.64 1.48 10.653 4.436 3.013 2.957 4.519 6.626 4.519 11.007 0 4.38-1.437 8.111-4.311 11.193-2.875 3.081-6.412 4.622-10.613 4.622-4.2 0-7.773-1.52-10.716-4.56-2.944-3.04-4.415-6.66-4.415-10.862 0-2.293.414-4.442 1.243-6.446.83-2.004 1.935-3.682 3.317-5.037a15.525 15.525 0 0 1 4.767-3.192 13.907 13.907 0 0 1 5.555-1.16Zm-7.546 15.63c0 2.459.795 4.456 2.384 5.99 1.59 1.533 3.365 2.3 5.327 2.3 1.962 0 3.731-.746 5.306-2.238 1.576-1.493 2.363-3.496 2.363-6.011s-.794-4.533-2.383-6.053c-1.59-1.52-3.365-2.28-5.327-2.28-1.963 0-3.731.767-5.307 2.3-1.575 1.535-2.363 3.531-2.363 5.991Zm55.84-9.121c.72 1.465 1.079 3.095 1.079 4.892 0 1.796-.36 3.42-1.078 4.87-.719 1.452-1.645 2.606-2.778 3.462-2.294 1.769-4.67 2.653-7.13 2.653h-5.182v4.685c0 .636-.02 1.112-.062 1.43-.042.318-.173.684-.394 1.099-.387.746-1.465 1.119-3.234 1.119-1.934 0-3.067-.511-3.399-1.534-.166-.47-.249-1.188-.249-2.156V24.46c0-.636.021-1.113.063-1.43.041-.318.172-.685.393-1.1.387-.745 1.465-1.118 3.234-1.118h8.871c2.432 0 4.795.884 7.09 2.653 1.132.856 2.058 2.017 2.777 3.482Zm-9.866 8.54c.83 0 1.645-.304 2.446-.912.802-.608 1.202-1.52 1.202-2.736 0-1.216-.4-2.135-1.202-2.757-.801-.622-1.63-.933-2.487-.933h-5.182v7.338h5.223Zm26.656-15.049c4.09 0 7.642 1.48 10.654 4.436 3.013 2.957 4.519 6.626 4.519 11.007 0 4.38-1.437 8.111-4.312 11.193-2.874 3.081-6.411 4.622-10.612 4.622-4.2 0-7.773-1.52-10.716-4.56-2.944-3.04-4.415-6.66-4.415-10.862 0-2.293.414-4.442 1.243-6.446.83-2.004 1.935-3.682 3.317-5.037a15.525 15.525 0 0 1 4.767-3.192 13.907 13.907 0 0 1 5.555-1.16Zm-7.545 15.63c0 2.459.795 4.456 2.384 5.99 1.59 1.533 3.365 2.3 5.327 2.3 1.962 0 3.731-.746 5.306-2.238 1.576-1.493 2.363-3.496 2.363-6.011s-.794-4.533-2.383-6.053c-1.59-1.52-3.365-2.28-5.327-2.28-1.963 0-3.731.767-5.307 2.3-1.575 1.535-2.363 3.531-2.363 5.991Z" fill="#fff" fill-rule="evenodd" data-name="Path 9082"/><g data-name="Group 2838"><path d="m248.6 14.854 35.925-3.143a5 5 0 0 1 5.417 4.545l3.042 34.777a5 5 0 0 1-4.545 5.417l-35.924 3.143a5 5 0 0 1-5.417-4.546l-3.043-34.777a5 5 0 0 1 4.546-5.416z" fill="#2f8495" fill-rule="evenodd" data-name="Rectangle 1250"/><path d="m243.501 16.127 33.791-7.183a5.758 5.758 0 0 1 6.83 4.435l.991 4.668 5.951 27.997a5.758 5.758 0 0 1-4.434 6.83l-33.792 7.182a5.758 5.758 0 0 1-6.829-4.435l-6.943-32.665a5.758 5.758 0 0 1 4.435-6.829Z" fill="#51aabc" fill-rule="evenodd" data-name="Path 9084"/><path d="M281.221 20.976c1.852.664 2.778 1.548 2.778 2.654 0 .359-.166 1.036-.498 2.03l-7.959 23.009a4.253 4.253 0 0 1-.29.704c-.138.277-.505.643-1.099 1.099-.594.456-1.299.684-2.114.684s-1.52-.228-2.114-.684c-.594-.456-.988-.905-1.182-1.347l-4.85-14.303c-3.068 9.065-4.63 13.68-4.684 13.847-.056.165-.18.4-.373.704-.194.304-.415.58-.664.83-.635.635-1.395.953-2.28.953-.884 0-1.61-.207-2.176-.622-.567-.414-.947-.829-1.14-1.244l-.29-.621-8.001-23.008c-.304-.912-.456-1.59-.456-2.031 0-1.106.925-1.977 2.777-2.612.802-.277 1.527-.415 2.177-.415.649 0 1.147.221 1.492.664.345.442.656 1.119.933 2.03l4.56 13.847 4.518-13.639c.387-1.16 1.092-1.962 2.115-2.404.442-.194 1.015-.29 1.72-.29.705 0 1.361.228 1.97.684.607.456.994.905 1.16 1.347l4.767 14.385 4.56-13.93c.222-.635.401-1.105.54-1.409.138-.304.393-.6.766-.89.373-.291.836-.436 1.389-.436s1.202.138 1.948.414Z" fill="#fff" fill-rule="evenodd" data-name="Path 9083"/></g></g></svg>