<svg xmlns="http://www.w3.org/2000/svg" width="325.528" height="146.106" viewBox="4.037 -5.51 325.528 146.106"><g data-name="MUSLIM SHOW"><path d="M75.808 50.187v-2.68c-6.868-.67-7.203-1.257-7.37-9.38L67.6 7.22c-.167-7.622.251-8.04 7.203-8.71v-2.765H58.89L41.385 34.273 24.215-4.254H8.134v2.764c7.37.67 7.957 1.508 7.203 11.558L14.08 26.903c-.67 8.794-1.257 12.898-1.76 15.662-.502 3.1-2.093 4.44-6.867 4.858v2.764h19.934v-2.764c-5.612-.503-7.37-1.173-7.622-5.025-.251-2.932-.251-6.7.084-13.652l1.088-22.614h.252L36.862 49.6h2.178L58.22 5.21h.335l.25 32.915c0 8.124-.334 8.71-6.867 9.38v2.68h23.87Zm62.733-54.44h-20.604v2.763c5.779.335 7.622 1.759 8.124 4.774.335 2.597.754 5.947.754 12.48v7.956c0 13.987-4.188 22.447-14.909 22.447-9.548 0-14.322-7.455-14.322-20.353V7.304c0-7.789.754-8.291 7.036-8.794v-2.764H80.666v2.764c6.365.586 7.119 1.005 7.119 8.794V27.49c0 9.8 2.345 15.998 7.12 19.766 3.936 3.016 9.045 4.188 14.321 4.188 5.78 0 11.475-2.01 15.327-6.03 4.775-5.025 6.198-12.145 6.198-21.358v-8.291c0-6.617.252-9.883.587-12.312.418-3.183 2.429-4.69 7.203-4.942v-2.764Zm36.852 12.73c-.67-5.277-1.173-8.794-1.508-11.893-2.177-.67-6.449-2.094-11.307-2.094-11.474 0-18.426 7.119-18.426 15.83 0 8.543 6.868 12.982 14.322 16.834 6.282 3.267 10.302 6.366 10.302 11.726 0 5.612-3.434 9.297-9.045 9.297-8.208 0-12.731-9.046-14.239-14.322l-2.847.837c.586 4.69 1.675 11.726 2.428 13.736 1.005.503 2.513 1.089 4.774 1.759 2.262.754 5.11 1.256 8.292 1.256 11.893 0 19.766-7.286 19.766-16.583 0-8.71-6.7-13.066-14.657-17.086-7.119-3.518-10.553-6.282-10.553-11.475 0-4.69 3.267-8.543 8.543-8.543 6.952 0 9.8 6.03 11.475 11.307l2.68-.586Zm46.651 27.22c-1.424 4.02-2.931 6.7-4.522 8.376-1.927 2.261-4.858 2.764-8.879 2.764-2.93 0-5.36-.168-6.867-.838-1.676-.754-2.01-2.345-2.01-6.449V6.634c0-7.119.753-7.621 7.202-8.124v-2.764h-24.205v2.764c6.533.503 7.287 1.005 7.287 8.124v32.581c0 7.12-.838 7.705-7.957 8.292v2.68h39.7c.754-2.345 2.429-10.553 3.099-13.82l-2.848-.67Zm30.57 14.49v-2.68c-6.448-.587-7.118-1.173-7.118-8.208V6.719c0-7.12.67-7.706 7.119-8.209v-2.764h-24.038v2.764c6.45.503 7.203 1.089 7.203 8.208v32.58c0 7.12-.754 7.622-7.203 8.209v2.68h24.038Zm75.38 0v-2.68c-6.868-.67-7.203-1.257-7.37-9.38l-.838-30.906c-.167-7.622.252-8.04 7.203-8.71v-2.765h-15.913L293.57 34.273l-17.17-38.527h-16.08v2.764c7.37.67 7.956 1.508 7.202 11.558l-1.256 16.835c-.67 8.794-1.256 12.898-1.759 15.662-.502 3.1-2.094 4.44-6.868 4.858v2.764h19.934v-2.764c-5.612-.503-7.37-1.173-7.622-5.025-.251-2.932-.251-6.7.084-13.652l1.089-22.614h.251L289.048 49.6h2.178l19.18-44.39h.335l.251 32.915c0 8.124-.335 8.71-6.868 9.38v2.68h23.87Z" fill="#f2f2f2" fill-rule="evenodd" data-name="Path 10204"/><path d="M47.7 83.307c-.892-7.035-1.563-11.726-2.01-15.858-2.903-.893-8.598-2.791-15.075-2.791-15.3 0-24.568 9.492-24.568 21.106 0 11.39 9.157 17.31 19.096 22.446 8.375 4.355 13.736 8.487 13.736 15.634 0 7.483-4.579 12.396-12.061 12.396-10.944 0-16.974-12.06-18.984-19.096l-3.797 1.117c.781 6.253 2.233 15.634 3.238 18.314 1.34.67 3.35 1.452 6.366 2.345 3.015 1.005 6.812 1.675 11.055 1.675 15.858 0 26.355-9.715 26.355-22.11 0-11.615-8.934-17.422-19.543-22.782-9.492-4.69-14.07-8.376-14.07-15.3 0-6.253 4.355-11.39 11.39-11.39 9.269 0 13.066 8.04 15.3 15.076l3.573-.782Zm88.335-16.974h-31.939v3.685c8.487.782 9.269 1.34 9.269 10.832v16.975H80.198V80.85c0-9.492.893-10.162 9.157-10.832v-3.685H57.416v3.685c8.823.67 9.828 1.34 9.828 10.832v43.664c0 9.381-1.005 10.051-9.492 10.833v3.573H89.69v-3.573c-8.599-.782-9.492-1.452-9.492-10.833v-21.33h33.167v21.33c0 9.381-.894 10.051-9.94 10.833v3.573h32.61v-3.573c-8.711-.782-9.604-1.452-9.604-10.833V80.85c0-9.492.781-10.05 9.604-10.832v-3.685Zm46.232-1.675c-24.68 0-38.527 18.872-38.527 38.304 0 21.44 15.634 37.633 37.187 37.633 20.883 0 38.08-14.74 38.08-38.75 0-22.223-16.862-37.187-36.74-37.187Zm-2.122 4.466c13.625 0 23.787 13.066 23.787 35.736 0 20.883-9.492 31.269-20.771 31.269-14.853 0-24.345-15.858-24.345-35.624 0-19.878 9.715-31.38 21.33-31.38Zm149.42-2.791H303.99v3.685c8.934.893 9.38 2.568 7.817 9.269-1.675 7.035-6.812 26.02-11.279 40.09h-.223c-6.365-17.309-12.73-34.73-18.984-52.263h-4.69c-5.361 17.645-11.168 35.066-16.752 52.04h-.223c-4.244-13.624-8.264-27.36-12.172-41.096-1.564-5.807-1.452-7.035 6.923-8.04v-3.685h-30.933v3.685c6.7.893 8.487 2.233 11.279 11.056a7395.633 7395.633 0 0 1 17.98 59.075h5.024c5.472-16.863 11.28-33.949 17.198-51.817h.224a6656.822 6656.822 0 0 1 18.76 51.817h5.026c9.269-31.269 15.858-51.258 18.426-58.517 3.127-9.269 4.69-10.497 12.172-11.614v-3.685Z" fill="#f2f2f2" fill-rule="evenodd" data-name="Path 10205"/></g></svg>