<svg id="BOUTON" xmlns="http://www.w3.org/2000/svg" width="104.872" height="104.872" viewBox="0 0 104.872 104.872">
  <path id="Path_3297" data-name="Path 3297" d="M91.763,104.872H13.109A13.11,13.11,0,0,1,0,91.763V13.109A13.11,13.11,0,0,1,13.109,0H91.763a13.11,13.11,0,0,1,13.109,13.109V91.763a13.11,13.11,0,0,1-13.109,13.109ZM13.109,6.555a6.562,6.562,0,0,0-6.555,6.555V91.763a6.562,6.562,0,0,0,6.555,6.554H91.763a6.561,6.561,0,0,0,6.554-6.554V13.109a6.562,6.562,0,0,0-6.554-6.555ZM23.334,87.007h0L18.7,82.373,34.428,66.646H25.816a3.277,3.277,0,1,1,0-6.554H42.11a3.251,3.251,0,0,1,2.333.983,2.927,2.927,0,0,1,1.036,2.294V79.755a3.277,3.277,0,0,1-6.555,0l.069-8.406L23.335,87.007ZM42.11,45.881H25.816a3.277,3.277,0,1,1,0-6.554h8.616L18.7,23.6l4.634-4.634L39,34.628l-.072-8.41a3.277,3.277,0,0,1,6.555,0V42.6a2.9,2.9,0,0,1-1.036,2.291A3.24,3.24,0,0,1,42.11,45.881Zm37.627-.659H63.443a3.239,3.239,0,0,1-2.334-.983,2.919,2.919,0,0,1-1.035-2.294V25.559a3.277,3.277,0,0,1,6.554,0l-.072,8.406L82.215,18.307l4.634,4.634L71.122,38.669h8.616a3.277,3.277,0,0,1,0,6.554Z" fill="#fff"/>
  <path id="Path_10208" data-name="Path 10208" d="M22.14,0,6.485,15.658l.072-8.4A3.277,3.277,0,1,0,0,7.253V23.637A2.931,2.931,0,0,0,1.039,25.93a3.253,3.253,0,0,0,2.333.983H19.663a3.277,3.277,0,0,0,0-6.553H11.049L26.774,4.635Z" transform="translate(86.919 58.623) rotate(90)" fill="#fff"/>
</svg>
